<?xml version="1.0" encoding="UTF-8" standalone="no"?>
<!-- Generator: Adobe Illustrator 17.1.0, SVG Export Plug-In . SVG Version: 6.00 Build 0)  -->

<svg
   xmlns:dc="http://purl.org/dc/elements/1.1/"
   xmlns:cc="http://creativecommons.org/ns#"
   xmlns:rdf="http://www.w3.org/1999/02/22-rdf-syntax-ns#"
   xmlns:svg="http://www.w3.org/2000/svg"
   xmlns="http://www.w3.org/2000/svg"
   xmlns:sodipodi="http://sodipodi.sourceforge.net/DTD/sodipodi-0.dtd"
   xmlns:inkscape="http://www.inkscape.org/namespaces/inkscape"
   version="1.1"
   id="Capa_1"
   x="0px"
   y="0px"
   viewBox="0 0 511.407 511.407"
   style="enable-background:new 0 0 511.407 511.407;"
   xml:space="preserve"
   sodipodi:docname="xbox_gamepad_green.svg"
   inkscape:version="0.92.5 (2060ec1f9f, 2020-04-08)"><metadata
   id="metadata63"><rdf:RDF><cc:Work
       rdf:about=""><dc:format>image/svg+xml</dc:format><dc:type
         rdf:resource="http://purl.org/dc/dcmitype/StillImage" /></cc:Work></rdf:RDF></metadata><defs
   id="defs61"><filter
     inkscape:collect="always"
     style="color-interpolation-filters:sRGB"
     id="filter5182"
     x="-0.0099057668"
     width="1.0198115"
     y="-0.01521714"
     height="1.0304343"><feGaussianBlur
       inkscape:collect="always"
       stdDeviation="1.9710216"
       id="feGaussianBlur5184" /></filter><filter
     inkscape:collect="always"
     style="color-interpolation-filters:sRGB"
     id="filter5654"
     x="-0.012162166"
     width="1.0243243"
     y="-0.012162158"
     height="1.0243243"><feGaussianBlur
       inkscape:collect="always"
       stdDeviation="0.077649603"
       id="feGaussianBlur5656" /></filter></defs><sodipodi:namedview
   pagecolor="#ffffff"
   bordercolor="#666666"
   borderopacity="1"
   objecttolerance="10"
   gridtolerance="10"
   guidetolerance="10"
   inkscape:pageopacity="0"
   inkscape:pageshadow="2"
   inkscape:window-width="1592"
   inkscape:window-height="937"
   id="namedview59"
   showgrid="false"
   inkscape:zoom="10.441919"
   inkscape:cx="258.62618"
   inkscape:cy="353.3658"
   inkscape:window-x="0"
   inkscape:window-y="0"
   inkscape:window-maximized="0"
   inkscape:current-layer="Capa_1" />
<g
   id="g26">
	<path
   d="M438.919,120.671c-4.78-8.412-19.849-17.029-44.79-25.612c-19.565-6.733-39.783-11.436-49.166-11.436   c-15.717,0-30.27,10.995-36.081,16h-52.919c-0.087,0-0.173,0.001-0.259,0.004c-0.086-0.002-0.173-0.004-0.26-0.004h-52.919   c-5.811-5.005-20.364-16-36.081-16c-9.383,0-29.601,4.702-49.166,11.436c-24.941,8.583-40.01,17.2-44.79,25.612   C71.47,122.464-27.814,303.793,7.65,388.162c8.506,20.236,23.899,33.423,45.75,39.195c1.08,0.285,2.195,0.427,3.354,0.427   c12.034,0,28.7-15.223,57.415-42.445c12.125-11.495,24.662-23.381,35.641-32.254c15.033-12.15,20.836-13.462,22.634-13.462h166.519   c1.797,0,7.601,1.312,22.633,13.461c10.979,8.874,23.517,20.759,35.641,32.254c28.716,27.224,45.38,42.448,57.415,42.446   c1.158,0,2.275-0.142,3.354-0.427c21.852-5.771,37.244-18.959,45.75-39.194C539.22,303.8,439.938,122.465,438.919,120.671z    M489.007,381.963c-6.512,15.49-17.836,25.242-34.611,29.798c-1.018-0.208-5.267-1.602-16.52-10.96   c-8.731-7.26-18.882-16.884-29.63-27.074c-32.884-31.175-53.956-50.104-69.282-50.104H172.444   c-15.326,0-36.399,18.929-69.283,50.104c-10.748,10.189-20.899,19.813-29.63,27.073c-11.253,9.357-15.502,10.752-16.52,10.96   c-16.775-4.556-28.1-14.308-34.611-29.799c-12.63-30.047-6.547-81.548,17.592-148.935c18.149-50.664,41.581-95.956,46.408-104.452   c1.458-2.566,10.877-9.713,36.085-18.388c19.216-6.613,37.441-10.564,43.959-10.564c10.788,0,23.467,9.928,27.431,13.743   c1.493,1.447,3.49,2.257,5.569,2.257h56c0.087,0,0.173-0.001,0.26-0.004c0.086,0.002,0.172,0.004,0.259,0.004h56   c2.079,0,4.077-0.81,5.569-2.257c3.942-3.822,16.554-13.743,27.431-13.743c6.518,0,24.743,3.952,43.959,10.564   c25.208,8.675,34.626,15.821,36.085,18.388c4.828,8.497,28.261,53.793,46.408,104.453   C495.554,300.415,501.637,351.915,489.007,381.963z"
   id="path2" />
	<path
   d="M191.444,291.623c4.418,0,8-3.582,8-8v-8h8c4.418,0,8-3.582,8-8s-3.582-8-8-8h-8v-8c0-4.418-3.582-8-8-8s-8,3.582-8,8v8h-8   c-4.418,0-8,3.582-8,8s3.582,8,8,8h8v8C183.444,288.041,187.026,291.623,191.444,291.623z"
   id="path4" />
	<path
   d="M352.895,244.271c-4.047,1.772-5.892,6.49-4.12,10.537c1.771,4.046,2.669,8.358,2.669,12.819   c0,17.643-14.354,31.996-31.996,31.996s-31.996-14.354-31.996-31.996s14.354-31.996,31.996-31.996   c4.458,0,8.767,0.896,12.809,2.665c4.049,1.771,8.765-0.074,10.536-4.123c1.771-4.048-0.075-8.765-4.123-10.536   c-6.077-2.658-12.544-4.006-19.222-4.006c-26.465,0-47.996,21.531-47.996,47.996s21.531,47.996,47.996,47.996   s47.996-21.531,47.996-47.996c0-6.683-1.35-13.155-4.012-19.236C361.66,244.343,356.942,242.498,352.895,244.271z"
   id="path6" />
	<path
   d="M224.895,244.271c-4.047,1.772-5.892,6.49-4.12,10.537c1.771,4.046,2.669,8.358,2.669,12.819   c0,17.643-14.354,31.996-31.996,31.996s-31.996-14.354-31.996-31.996s14.354-31.996,31.996-31.996   c4.458,0,8.767,0.896,12.809,2.665c4.049,1.771,8.766-0.074,10.536-4.123c1.771-4.048-0.075-8.765-4.123-10.536   c-6.077-2.658-12.544-4.006-19.222-4.006c-26.465,0-47.996,21.531-47.996,47.996s21.531,47.996,47.996,47.996   s47.996-21.531,47.996-47.996c0-6.683-1.35-13.155-4.012-19.236C233.66,244.343,228.942,242.498,224.895,244.271z"
   id="path8" />
	<path
   d="M319.448,251.628c-0.001,0-0.003,0-0.004,0s-0.003,0-0.004,0c-8.822,0-16,7.177-16,15.999c0,8.822,7.177,15.999,16,15.999   c0.001,0,0.003,0,0.004,0s0.003,0,0.004,0c8.822,0,16-7.177,16-15.999C335.448,258.805,328.271,251.628,319.448,251.628z"
   id="path10" />
	<path
   d="M175.444,187.619c0-6.684-1.35-13.155-4.012-19.236c-1.772-4.047-6.491-5.893-10.537-4.12   c-4.047,1.772-5.892,6.49-4.12,10.537c1.771,4.045,2.669,8.358,2.669,12.819c0,17.643-14.354,31.996-31.996,31.996   s-31.996-14.354-31.996-31.996s14.354-31.996,31.996-31.996c4.458,0,8.767,0.896,12.809,2.665c4.05,1.771,8.765-0.076,10.536-4.123   c1.771-4.048-0.075-8.765-4.123-10.536c-6.077-2.658-12.544-4.006-19.222-4.006c-26.465,0-47.996,21.531-47.996,47.996   s21.531,47.996,47.996,47.996S175.444,214.084,175.444,187.619z"
   id="path12" />
	<path
   d="M127.448,171.62c-0.001,0-0.002,0-0.004,0s-0.002,0-0.004,0c-8.822,0-16,7.177-16,15.999c0,8.822,7.177,15.999,16,15.999   c0.001,0,0.002,0,0.004,0s0.002,0,0.004,0c8.822,0,16-7.177,16-15.999C143.448,178.797,136.271,171.62,127.448,171.62z"
   id="path14" />
	<path
   d="M351.444,203.623c8.822,0,16-7.178,16-16s-7.178-16-16-16s-16,7.178-16,16S342.622,203.623,351.444,203.623z"
   id="path16" />
	<path
   d="M415.444,171.623c-8.822,0-16,7.178-16,16s7.178,16,16,16s16-7.178,16-16S424.267,171.623,415.444,171.623z"
   id="path18" />
	<path
   d="M383.444,203.623c-8.822,0-16,7.178-16,16s7.178,16,16,16s16-7.178,16-16S392.267,203.623,383.444,203.623z"
   id="path20" />
	<path
   d="M383.444,171.623c8.822,0,16-7.178,16-16s-7.178-16-16-16s-16,7.178-16,16S374.622,171.623,383.444,171.623z"
   id="path22" />
	<path
   d="M279.444,147.623c0-13.233-10.766-24-24-24s-24,10.767-24,24s10.766,24,24,24S279.444,160.856,279.444,147.623z    M255.444,155.623c-4.411,0-8-3.589-8-8s3.589-8,8-8s8,3.589,8,8S259.856,155.623,255.444,155.623z"
   id="path24" />
</g>
<g
   id="g28">
</g>
<g
   id="g30">
</g>
<g
   id="g32">
</g>
<g
   id="g34">
</g>
<g
   id="g36">
</g>
<g
   id="g38">
</g>
<g
   id="g40">
</g>
<g
   id="g42">
</g>
<g
   id="g44">
</g>
<g
   id="g46">
</g>
<g
   id="g48">
</g>
<g
   id="g50">
</g>
<g
   id="g52">
</g>
<g
   id="g54">
</g>
<g
   id="g56">
</g>
<path
   style="fill:#107c10;fill-opacity:1;stroke-width:1.53228545;stroke:#107c10;stroke-opacity:1;filter:url(#filter5182)"
   d="M 47.884248,407.5117 C 10.786359,390.04185 6.8734228,335.91039 36.295622,247.19496 46.8669,215.31986 61.469508,180.13327 76.973951,149.17605 l 11.283866,-22.53013 10.627071,-5.58437 c 12.926222,-6.79254 37.835202,-15.24135 55.643072,-18.87344 12.4854,-2.546512 13.53561,-2.549035 20.08383,-0.0482 3.80024,1.45132 10.58022,5.37749 15.06665,8.7248 l 8.15712,6.08603 h 57.65087 57.65089 l 9.84163,-6.93012 c 12.95385,-9.12162 19.05899,-10.705904 31.99536,-8.30281 15.44317,2.86877 45.62398,13.06766 57.59388,19.4625 l 10.72599,5.73029 10.94768,21.79911 c 47.96608,95.51058 70.16638,186.23648 55.78182,227.96342 -5.52704,16.03294 -18.60579,29.28966 -33.11929,33.56998 -4.95762,1.46209 -14.03863,-5.51659 -46.6827,-35.87534 -35.8706,-33.35937 -52.92617,-46.70591 -63.75893,-49.89348 -6.70737,-1.97366 -20.71612,-2.25235 -94.23556,-1.87472 l -86.35697,0.44357 -6.89529,3.66476 c -10.24028,5.44262 -23.1397,15.71886 -43.43862,34.60512 -33.293715,30.97672 -44.612504,40.96254 -51.479995,45.41746 -3.746713,2.4305 -7.194355,4.41233 -7.661428,4.4041 -0.467071,-0.008 -4.296864,-1.6385 -8.510649,-3.62283 z M 213.11565,310.97689 c 20.85135,-10.20162 31.42991,-34.21097 24.92794,-56.57701 -2.74485,-9.44192 -6.41434,-12.67843 -12.61114,-11.12313 -5.42878,1.36253 -6.93156,6.74366 -4.3131,15.44419 8.76926,29.13799 -26.54332,52.52733 -49.23037,32.60782 -17.15721,-15.06423 -14.41952,-40.78121 5.47339,-51.4152 6.98691,-3.73494 13.98776,-3.9961 28.48325,-1.06255 6.22689,1.26018 10.16545,-2.4932 9.52356,-9.07581 -0.69748,-7.15278 -6.47742,-9.39524 -24.21624,-9.39524 -13.2497,0 -15.28849,0.40537 -22.70671,4.51473 -31.027,17.18755 -34.25493,61.35956 -5.96714,81.65621 14.90467,10.69419 34.35072,12.3939 50.63656,4.42599 z m 127.43512,0.19981 c 17.39852,-8.89601 25.77727,-22.34399 26.4981,-42.52975 0.68906,-19.29562 -5.49174,-29.61489 -14.63611,-24.43602 -4.52404,2.56217 -4.66593,3.63662 -2.573,19.48375 1.3881,10.51038 -2.06085,19.76576 -10.05781,26.99055 -17.51087,15.82002 -44.34687,7.17485 -50.67465,-16.32474 -3.52925,-13.10659 4.53094,-29.04216 17.72004,-35.03385 7.23221,-3.28551 12.95698,-3.52971 23.84255,-1.01702 7.62137,1.75923 8.10432,1.67996 10.91546,-1.79167 7.04485,-8.70001 -0.54921,-15.54009 -18.40035,-16.57347 -15.77122,-0.91298 -25.0981,2.102 -35.53723,11.48768 -34.57171,31.08294 -11.78505,86.69143 34.51557,84.2317 7.64471,-0.40612 12.92692,-1.69517 18.38743,-4.48716 z m -142.612,-21.95335 c 1.32434,-1.32432 2.40788,-4.77196 2.40788,-7.66142 0,-4.96168 0.29187,-5.25355 5.25355,-5.25355 6.33202,0 10.06931,-3.33919 10.06931,-8.99671 0,-5.70157 -2.60746,-7.85843 -9.50017,-7.85843 -5.63298,0 -5.82269,-0.17474 -5.82269,-5.363 0,-5.79396 -4.30879,-11.49214 -8.68999,-11.49214 -4.64485,0 -8.16515,4.72677 -8.16515,10.96349 0,5.76415 -0.12166,5.89165 -5.62542,5.89165 -9.67079,0 -14.43793,7.7058 -8.6938,14.05299 1.61915,1.78914 4.66581,2.80215 8.42757,2.80215 5.80039,0 5.89165,0.0903 5.89165,5.82268 0,3.20248 0.82743,6.65012 1.83874,7.66143 2.60339,2.60338 9.75899,2.28039 12.60852,-0.56914 z m 130.94078,-7.75223 c 4.74814,-3.32573 8.02473,-11.51996 6.88505,-17.21841 -1.76004,-8.80021 -12.09068,-14.70886 -21.3873,-12.23257 -6.65397,1.77239 -10.07303,6.20298 -10.9772,14.22482 -0.71495,6.34292 -0.33168,7.36395 4.62483,12.32046 4.32595,4.32595 6.58999,5.40439 11.34581,5.40439 3.2678,0 7.54675,-1.12441 9.50881,-2.49869 z M 149.26919,231.04876 c 15.75157,-7.70653 26.56089,-25.38575 26.56089,-43.44176 0,-14.66411 -4.71798,-24.68774 -11.62017,-24.68774 -5.92183,0 -8.77249,4.25332 -7.62943,11.38346 2.79495,17.43437 2.74346,18.24519 -1.70925,26.91622 -11.08021,21.57716 -39.22513,23.35426 -53.26094,3.36296 -3.937812,-5.60866 -4.641104,-8.03428 -4.664894,-16.089 -0.0667,-22.5807 18.855654,-36.46676 41.176674,-30.21726 7.49129,2.09743 12.28361,0.61924 13.5375,-4.17565 2.31373,-8.84771 -7.1995,-14.67043 -24.09648,-14.74861 -18.1842,-0.0841 -34.079902,9.30022 -42.986117,25.37773 -4.111623,7.42231 -4.514073,9.44973 -4.507368,22.70671 0.0064,12.80217 0.500025,15.49188 4.094753,22.31537 4.316247,8.19308 13.2984,17.27873 21.039262,21.28168 12.54377,6.48664 30.82635,6.49323 44.06557,0.0159 z m 246.06078,-0.6799 c 5.92037,-6.56732 5.82056,-15.03756 -0.25737,-21.83994 -3.8387,-4.29624 -5.48211,-5.0041 -11.61784,-5.0041 -6.13573,0 -7.77913,0.70786 -11.61783,5.0041 -3.29901,3.69225 -4.47116,6.55039 -4.47116,10.90243 0,15.30419 17.76413,22.25219 27.9642,10.93751 z M 138.44232,199.08119 c 7.01339,-7.01339 7.28599,-15.40247 0.7386,-22.73026 -3.83869,-4.29625 -5.48209,-5.0041 -11.61783,-5.0041 -6.13573,0 -7.77914,0.70785 -11.61783,5.0041 -3.46819,3.88158 -4.46352,6.45949 -4.43709,11.49214 0.0799,15.20722 16.22753,21.94474 26.93415,11.23812 z m 220.21354,3.49815 c 5.886,-3.01012 8.6398,-7.84747 8.67583,-15.23991 0.0283,-5.82534 -0.74955,-7.74244 -4.66339,-11.49214 -3.7799,-3.62138 -6.04925,-4.50046 -11.61784,-4.50046 -5.88019,0 -7.59241,0.75214 -11.39153,5.0041 -6.54738,7.32779 -6.27478,15.71687 0.73861,22.73026 5.57021,5.57022 11.85287,6.77392 18.25832,3.49815 z m 67.85612,-3.49815 c 15.71748,-15.71747 -6.64582,-38.20353 -22.699,-22.82361 -3.46479,3.31948 -4.2628,5.40758 -4.23514,11.08185 0.0765,15.70113 16.023,22.6529 26.93414,11.74176 z M 268.88529,168.05624 c 7.8603,-5.86856 10.37406,-10.82623 10.37406,-20.45984 0,-9.69047 -2.50921,-14.58788 -10.54997,-20.59117 -5.96523,-4.4537 -20.45654,-4.42842 -26.49559,0.0462 -15.49537,11.48131 -14.99858,30.78941 1.07332,41.71391 4.38264,2.979 6.76333,3.50525 13.43458,2.9697 4.82207,-0.3871 9.75164,-1.87802 12.1636,-3.67881 z m 121.94856,2.3451 c 8.39248,-4.29195 11.54304,-16.54589 6.21123,-24.15814 -9.22804,-13.17487 -29.73244,-6.53194 -29.64524,9.60434 0.0667,12.34162 12.57251,20.10843 23.43401,14.5538 z"
   id="path4582"
   inkscape:connector-curvature="0" /><path
   style="fill:#107c10;fill-opacity:1;stroke-width:1.53228545;stroke:#107c10;stroke-opacity:1;filter:url(#filter5654)"
   d="m 250.38341,152.45568 c -1.39475,-1.54119 -2.53591,-3.91544 -2.53591,-5.27612 0,-2.33648 5.4215,-7.24459 8.00237,-7.24459 1.72484,0 7.32048,5.85626 7.32048,7.66143 0,2.24385 -5.7914,7.66143 -8.19008,7.66143 -1.13352,0 -3.2021,-1.26097 -4.59686,-2.80215 z"
   id="path4584"
   inkscape:connector-curvature="0" /></svg>