<?xml version="1.0" encoding="UTF-8" standalone="no"?>
<!-- Generator: Adobe Illustrator 17.1.0, SVG Export Plug-In . SVG Version: 6.00 Build 0)  -->

<svg
   xmlns:dc="http://purl.org/dc/elements/1.1/"
   xmlns:cc="http://creativecommons.org/ns#"
   xmlns:rdf="http://www.w3.org/1999/02/22-rdf-syntax-ns#"
   xmlns:svg="http://www.w3.org/2000/svg"
   xmlns="http://www.w3.org/2000/svg"
   xmlns:sodipodi="http://sodipodi.sourceforge.net/DTD/sodipodi-0.dtd"
   xmlns:inkscape="http://www.inkscape.org/namespaces/inkscape"
   version="1.1"
   id="Capa_1"
   x="0px"
   y="0px"
   viewBox="0 0 511.407 511.407"
   style="enable-background:new 0 0 511.407 511.407;"
   xml:space="preserve"
   sodipodi:docname="xbox_gamepad_red.svg"
   inkscape:version="0.92.5 (2060ec1f9f, 2020-04-08)"><metadata
   id="metadata63"><rdf:RDF><cc:Work
       rdf:about=""><dc:format>image/svg+xml</dc:format><dc:type
         rdf:resource="http://purl.org/dc/dcmitype/StillImage" /></cc:Work></rdf:RDF></metadata><defs
   id="defs61"><filter
     inkscape:collect="always"
     style="color-interpolation-filters:sRGB"
     id="filter1082"
     x="-0.0099064492"
     width="1.0198129"
     y="-0.01521553"
     height="1.0304311"><feGaussianBlur
       inkscape:collect="always"
       stdDeviation="1.975741"
       id="feGaussianBlur1084" /></filter><filter
     inkscape:collect="always"
     style="color-interpolation-filters:sRGB"
     id="filter1086"
     x="-0.30718316"
     width="1.6143663"
     y="-0.31374816"
     height="1.6274963"><feGaussianBlur
       inkscape:collect="always"
       stdDeviation="1.975741"
       id="feGaussianBlur1088" /></filter></defs><sodipodi:namedview
   pagecolor="#ffffff"
   bordercolor="#666666"
   borderopacity="1"
   objecttolerance="10"
   gridtolerance="10"
   guidetolerance="10"
   inkscape:pageopacity="0"
   inkscape:pageshadow="2"
   inkscape:window-width="1920"
   inkscape:window-height="1017"
   id="namedview59"
   showgrid="false"
   inkscape:zoom="1.8458879"
   inkscape:cx="297.973"
   inkscape:cy="247.70785"
   inkscape:window-x="-8"
   inkscape:window-y="-8"
   inkscape:window-maximized="1"
   inkscape:current-layer="Capa_1" />
<g
   id="g26">
	<path
   d="M438.919,120.671c-4.78-8.412-19.849-17.029-44.79-25.612c-19.565-6.733-39.783-11.436-49.166-11.436   c-15.717,0-30.27,10.995-36.081,16h-52.919c-0.087,0-0.173,0.001-0.259,0.004c-0.086-0.002-0.173-0.004-0.26-0.004h-52.919   c-5.811-5.005-20.364-16-36.081-16c-9.383,0-29.601,4.702-49.166,11.436c-24.941,8.583-40.01,17.2-44.79,25.612   C71.47,122.464-27.814,303.793,7.65,388.162c8.506,20.236,23.899,33.423,45.75,39.195c1.08,0.285,2.195,0.427,3.354,0.427   c12.034,0,28.7-15.223,57.415-42.445c12.125-11.495,24.662-23.381,35.641-32.254c15.033-12.15,20.836-13.462,22.634-13.462h166.519   c1.797,0,7.601,1.312,22.633,13.461c10.979,8.874,23.517,20.759,35.641,32.254c28.716,27.224,45.38,42.448,57.415,42.446   c1.158,0,2.275-0.142,3.354-0.427c21.852-5.771,37.244-18.959,45.75-39.194C539.22,303.8,439.938,122.465,438.919,120.671z    M489.007,381.963c-6.512,15.49-17.836,25.242-34.611,29.798c-1.018-0.208-5.267-1.602-16.52-10.96   c-8.731-7.26-18.882-16.884-29.63-27.074c-32.884-31.175-53.956-50.104-69.282-50.104H172.444   c-15.326,0-36.399,18.929-69.283,50.104c-10.748,10.189-20.899,19.813-29.63,27.073c-11.253,9.357-15.502,10.752-16.52,10.96   c-16.775-4.556-28.1-14.308-34.611-29.799c-12.63-30.047-6.547-81.548,17.592-148.935c18.149-50.664,41.581-95.956,46.408-104.452   c1.458-2.566,10.877-9.713,36.085-18.388c19.216-6.613,37.441-10.564,43.959-10.564c10.788,0,23.467,9.928,27.431,13.743   c1.493,1.447,3.49,2.257,5.569,2.257h56c0.087,0,0.173-0.001,0.26-0.004c0.086,0.002,0.172,0.004,0.259,0.004h56   c2.079,0,4.077-0.81,5.569-2.257c3.942-3.822,16.554-13.743,27.431-13.743c6.518,0,24.743,3.952,43.959,10.564   c25.208,8.675,34.626,15.821,36.085,18.388c4.828,8.497,28.261,53.793,46.408,104.453   C495.554,300.415,501.637,351.915,489.007,381.963z"
   id="path2" />
	<path
   d="M191.444,291.623c4.418,0,8-3.582,8-8v-8h8c4.418,0,8-3.582,8-8s-3.582-8-8-8h-8v-8c0-4.418-3.582-8-8-8s-8,3.582-8,8v8h-8   c-4.418,0-8,3.582-8,8s3.582,8,8,8h8v8C183.444,288.041,187.026,291.623,191.444,291.623z"
   id="path4" />
	<path
   d="M352.895,244.271c-4.047,1.772-5.892,6.49-4.12,10.537c1.771,4.046,2.669,8.358,2.669,12.819   c0,17.643-14.354,31.996-31.996,31.996s-31.996-14.354-31.996-31.996s14.354-31.996,31.996-31.996   c4.458,0,8.767,0.896,12.809,2.665c4.049,1.771,8.765-0.074,10.536-4.123c1.771-4.048-0.075-8.765-4.123-10.536   c-6.077-2.658-12.544-4.006-19.222-4.006c-26.465,0-47.996,21.531-47.996,47.996s21.531,47.996,47.996,47.996   s47.996-21.531,47.996-47.996c0-6.683-1.35-13.155-4.012-19.236C361.66,244.343,356.942,242.498,352.895,244.271z"
   id="path6" />
	<path
   d="M224.895,244.271c-4.047,1.772-5.892,6.49-4.12,10.537c1.771,4.046,2.669,8.358,2.669,12.819   c0,17.643-14.354,31.996-31.996,31.996s-31.996-14.354-31.996-31.996s14.354-31.996,31.996-31.996   c4.458,0,8.767,0.896,12.809,2.665c4.049,1.771,8.766-0.074,10.536-4.123c1.771-4.048-0.075-8.765-4.123-10.536   c-6.077-2.658-12.544-4.006-19.222-4.006c-26.465,0-47.996,21.531-47.996,47.996s21.531,47.996,47.996,47.996   s47.996-21.531,47.996-47.996c0-6.683-1.35-13.155-4.012-19.236C233.66,244.343,228.942,242.498,224.895,244.271z"
   id="path8" />
	<path
   d="M319.448,251.628c-0.001,0-0.003,0-0.004,0s-0.003,0-0.004,0c-8.822,0-16,7.177-16,15.999c0,8.822,7.177,15.999,16,15.999   c0.001,0,0.003,0,0.004,0s0.003,0,0.004,0c8.822,0,16-7.177,16-15.999C335.448,258.805,328.271,251.628,319.448,251.628z"
   id="path10" />
	<path
   d="M175.444,187.619c0-6.684-1.35-13.155-4.012-19.236c-1.772-4.047-6.491-5.893-10.537-4.12   c-4.047,1.772-5.892,6.49-4.12,10.537c1.771,4.045,2.669,8.358,2.669,12.819c0,17.643-14.354,31.996-31.996,31.996   s-31.996-14.354-31.996-31.996s14.354-31.996,31.996-31.996c4.458,0,8.767,0.896,12.809,2.665c4.05,1.771,8.765-0.076,10.536-4.123   c1.771-4.048-0.075-8.765-4.123-10.536c-6.077-2.658-12.544-4.006-19.222-4.006c-26.465,0-47.996,21.531-47.996,47.996   s21.531,47.996,47.996,47.996S175.444,214.084,175.444,187.619z"
   id="path12" />
	<path
   d="M127.448,171.62c-0.001,0-0.002,0-0.004,0s-0.002,0-0.004,0c-8.822,0-16,7.177-16,15.999c0,8.822,7.177,15.999,16,15.999   c0.001,0,0.002,0,0.004,0s0.002,0,0.004,0c8.822,0,16-7.177,16-15.999C143.448,178.797,136.271,171.62,127.448,171.62z"
   id="path14" />
	<path
   d="M351.444,203.623c8.822,0,16-7.178,16-16s-7.178-16-16-16s-16,7.178-16,16S342.622,203.623,351.444,203.623z"
   id="path16" />
	<path
   d="M415.444,171.623c-8.822,0-16,7.178-16,16s7.178,16,16,16s16-7.178,16-16S424.267,171.623,415.444,171.623z"
   id="path18" />
	<path
   d="M383.444,203.623c-8.822,0-16,7.178-16,16s7.178,16,16,16s16-7.178,16-16S392.267,203.623,383.444,203.623z"
   id="path20" />
	<path
   d="M383.444,171.623c8.822,0,16-7.178,16-16s-7.178-16-16-16s-16,7.178-16,16S374.622,171.623,383.444,171.623z"
   id="path22" />
	<path
   d="M279.444,147.623c0-13.233-10.766-24-24-24s-24,10.767-24,24s10.766,24,24,24S279.444,160.856,279.444,147.623z    M255.444,155.623c-4.411,0-8-3.589-8-8s3.589-8,8-8s8,3.589,8,8S259.856,155.623,255.444,155.623z"
   id="path24" />
</g>
<g
   id="g28">
</g>
<g
   id="g30">
</g>
<g
   id="g32">
</g>
<g
   id="g34">
</g>
<g
   id="g36">
</g>
<g
   id="g38">
</g>
<g
   id="g40">
</g>
<g
   id="g42">
</g>
<g
   id="g44">
</g>
<g
   id="g46">
</g>
<g
   id="g48">
</g>
<g
   id="g50">
</g>
<g
   id="g52">
</g>
<g
   id="g54">
</g>
<g
   id="g56">
</g>
<path
   style="fill:#cc0000;fill-opacity:1;stroke:#cc0000;stroke-width:0.54174471;stroke-opacity:1;filter:url(#filter1082)"
   d="m 52.020898,409.81133 c -19.939836,-7.43385 -30.998044,-22.89616 -34.780707,-48.63267 -1.186543,-8.07302 -0.874655,-30.05584 0.58289,-41.08387 6.371637,-48.20886 28.664284,-112.30706 61.964537,-178.16708 7.004483,-13.8532 7.125308,-14.04588 10.250774,-16.34672 3.908618,-2.87736 14.005368,-8.06357 21.574428,-11.08172 18.00668,-7.18015 45.84785,-14.623706 54.69714,-14.623706 6.89922,0 16.70425,4.703396 26.18077,12.558726 1.72565,1.43043 3.79782,2.78572 4.60483,3.01176 1.91703,0.53696 115.32567,0.53696 117.2427,0 0.80701,-0.22604 2.90905,-1.61082 4.6712,-3.0773 9.33283,-7.76685 19.10534,-12.497674 25.80284,-12.491007 8.10798,0.0081 31.8603,6.011617 49.45569,12.500227 9.34964,3.44785 22.68344,9.91307 26.96181,13.0731 3.22262,2.38025 3.33653,2.55809 9.8438,15.3681 39.92634,78.59767 64.09731,155.15494 64.09402,203.00646 -0.003,36.0419 -12.61219,58.61779 -37.12685,66.47023 l -3.81,1.2204 -2.71706,-1.37684 c -7.20965,-3.65341 -16.73412,-11.78556 -45.46264,-38.81678 -29.67943,-27.92596 -41.40407,-37.64708 -52.14888,-43.23762 -9.40189,-4.89182 -0.10975,-4.46889 -98.18528,-4.46889 -77.97108,0 -87.33035,0.0897 -89.96673,0.86187 -4.8719,1.42701 -12.8664,5.93389 -20.0221,11.28741 -10.76539,8.05409 -16.71359,13.31592 -43.86667,38.80486 -19.67986,18.47373 -26.909335,24.91924 -33.757465,30.09677 -5.21653,3.94397 -9.94871,6.73753 -11.32477,6.6854 -0.382355,-0.0145 -2.52358,-0.70799 -4.758277,-1.54111 z M 197.16325,315.46355 c 11.21281,-1.40597 20.1759,-5.85379 28.21596,-14.00181 10.30365,-10.44201 14.49381,-21.17166 13.95764,-35.74098 -0.36585,-9.94132 -2.9619,-18.30696 -6.4683,-20.84376 -2.06142,-1.49139 -6.21027,-1.74468 -8.53432,-0.52103 -4.35973,2.29547 -5.26901,6.19503 -3.00711,12.89643 3.96686,11.75275 1.17344,23.79634 -7.55331,32.5654 -9.84189,9.8896 -23.8824,12.2177 -36.60988,6.07036 -4.82647,-2.33116 -11.65521,-9.1599 -13.98638,-13.98637 -6.14733,-12.72748 -3.81924,-26.768 6.07037,-36.60988 8.76906,-8.72675 20.81265,-11.52017 32.56539,-7.55331 6.70141,2.2619 10.60097,1.35262 12.89644,-3.00711 1.22365,-2.32405 0.97035,-6.47291 -0.52104,-8.53433 -2.53679,-3.50639 -10.90244,-6.10244 -20.84375,-6.4683 -10.46706,-0.3852 -17.9432,1.45896 -26.74505,6.59727 -5.32868,3.11075 -13.94832,11.83687 -16.903,17.11178 -14.02758,25.04313 -4.11605,56.08789 21.71267,68.00811 8.18144,3.77583 16.87078,5.13135 25.75367,4.01753 z m 133.84781,-1.08704 c 23.21066,-5.54371 39.26949,-28.61606 36.31842,-52.18009 -1.21436,-9.69658 -4.03966,-16.1322 -7.96828,-18.15057 -3.02401,-1.55362 -8.19242,-0.068 -9.98483,2.87004 -1.81653,2.97758 -1.84492,4.92001 -0.14614,9.99837 1.36123,4.06928 1.56288,5.47594 1.56288,10.90217 0,5.10366 -0.22643,6.88538 -1.25236,9.85457 -3.11524,9.01599 -10.86526,16.82914 -19.80798,19.96933 -4.66378,1.63767 -12.98658,2.01755 -17.6275,0.8046 -8.49586,-2.2205 -16.71309,-8.55781 -20.52754,-15.83132 -2.2161,-4.22572 -3.89788,-10.72697 -3.89788,-15.06806 0,-7.83951 3.66348,-16.4743 9.44062,-22.25144 8.63938,-8.63938 21.22546,-11.54798 32.77492,-7.57418 2.2124,0.76122 4.89403,1.38312 5.95919,1.382 4.13891,-0.004 7.61934,-3.73886 7.62295,-8.17947 0.004,-4.78792 -3.0816,-7.51379 -11.09626,-9.80297 -3.71635,-1.06147 -5.58947,-1.23907 -13.00935,-1.23345 -10.1988,0.008 -12.95142,0.60302 -21.12805,4.56924 -9.60365,4.65843 -17.30607,12.36129 -21.96098,21.96223 -3.5158,7.25145 -4.34466,10.60671 -4.69495,19.00516 -0.61669,14.7859 3.53652,25.53492 13.92493,36.03945 7.7996,7.88679 16.95092,12.54182 27.51503,13.99618 4.87524,0.67118 12.58577,0.20734 17.98316,-1.08179 z M 195.3574,290.7829 c 3.0555,-1.44992 4.21467,-3.99422 4.46899,-9.80902 l 0.22006,-5.03128 h 4.36916 c 3.26201,0 4.93636,-0.27458 6.60746,-1.08354 4.2427,-2.05386 5.91299,-7.66889 3.38581,-11.3821 -2.23606,-3.28546 -3.60057,-3.90641 -9.23133,-4.20093 l -5.12005,-0.26781 -0.26781,-5.12005 c -0.29452,-5.63076 -0.91547,-6.99527 -4.20093,-9.23133 -3.71321,-2.52719 -9.32824,-0.85689 -11.3821,3.38581 -0.80897,1.6711 -1.08354,3.34544 -1.08354,6.60746 v 4.36916 l -5.03128,0.22005 c -4.00049,0.17497 -5.43155,0.46744 -6.98501,1.42752 -3.6739,2.2706 -4.89558,7.93821 -2.47538,11.48382 1.97625,2.89522 4.28026,3.79194 9.74295,3.79194 h 4.74872 l 0.0119,4.46939 c 0.0144,5.39001 1.21068,8.51446 3.88425,10.1445 2.18295,1.33091 5.80341,1.42922 8.33813,0.22641 z m 131.14417,-8.66571 c 5.39306,-2.56788 8.94,-8.06006 9.02959,-13.98168 0.10313,-6.81564 -3.05576,-12.00289 -9.13064,-14.99354 -3.22816,-1.58922 -3.80555,-1.69925 -7.69713,-1.46687 -9.0909,0.54285 -14.6828,6.10166 -15.20455,15.11455 -0.20766,3.58717 -0.0568,4.56173 1.09313,7.06344 1.70915,3.71821 3.73695,6.09709 6.65495,7.80715 4.5606,2.67269 10.24364,2.84293 15.25465,0.45695 z M 140.48596,233.99564 c 16.51862,-4.86148 28.76344,-17.14275 33.52661,-33.62643 1.06837,-3.69726 1.25235,-5.56757 1.25235,-12.731 0,-9.22156 -1.01044,-14.30104 -3.90152,-19.6129 -1.48219,-2.72327 -4.60938,-4.77742 -7.23695,-4.75372 -2.31307,0.0209 -5.70016,1.93655 -6.92336,3.91573 -1.52562,2.46851 -1.47344,5.09242 0.20586,10.35095 1.83779,5.7548 2.20168,10.95225 1.12437,16.05913 -3.44274,16.31992 -18.73895,27.48963 -34.84827,25.44716 -15.92809,-2.01948 -27.782829,-15.42035 -27.782829,-31.40635 0,-13.85718 8.708019,-25.82528 21.940659,-30.15473 6.15182,-2.01275 13.42617,-2.00786 19.37878,0.013 2.31546,0.78608 5.24088,1.42833 6.50094,1.42722 6.05482,-0.005 9.62867,-6.00021 6.91675,-11.60228 -1.0124,-2.09136 -1.70628,-2.7095 -4.53573,-4.04071 -5.85242,-2.75345 -10.06118,-3.55051 -18.78021,-3.55664 -8.6241,-0.006 -12.82276,0.84174 -19.77068,3.99208 -18.958857,8.59635 -30.623466,29.32553 -27.932685,49.63916 2.777894,20.97123 18.491091,37.81003 38.891255,41.67721 6.31897,1.19787 15.92074,0.7448 21.97466,-1.03689 z m 250.36423,0.001 c 3.25319,-1.59164 5.62421,-4.09357 7.48157,-7.8947 1.70813,-3.49573 1.64052,-9.54456 -0.14812,-13.24989 -1.6442,-3.40613 -4.80181,-6.57571 -8.03323,-8.06369 -3.78997,-1.74517 -10.2371,-1.60507 -13.8953,0.30196 -9.46718,4.93527 -11.939,17.22953 -5.03991,25.06731 2.06086,2.34126 4.91444,4.19925 8.01951,5.22156 2.62462,0.86412 8.43765,0.17222 11.61548,-1.38255 z M 133.88503,202.41411 c 5.80109,-2.5661 9.6895,-8.40214 9.6903,-14.54396 2.3e-4,-1.80917 -0.38356,-4.41633 -0.85288,-5.7937 -1.12267,-3.29486 -4.56727,-7.13743 -8.01866,-8.94508 -3.69758,-1.93659 -10.09992,-2.07518 -13.96212,-0.30223 -5.71429,2.62316 -9.34358,8.24908 -9.37861,14.5382 -0.0413,7.4232 4.27099,13.49981 11.17855,15.75199 3.04599,0.99313 8.23302,0.67066 11.34342,-0.70522 z m 224.51637,-0.16034 c 6.86573,-3.32365 10.55096,-11.13041 8.68761,-18.40376 -3.30573,-12.90354 -19.06227,-16.73675 -27.83411,-6.77141 -5.26624,5.98276 -5.26739,15.13516 -0.003,21.11623 2.19608,2.49488 5.24591,4.41498 8.29038,5.21941 2.77307,0.73272 8.1307,0.16015 10.85875,-1.16047 z m 63.74511,0.13676 c 3.17967,-1.40651 6.72378,-4.9517 8.1681,-8.17057 1.33376,-2.97249 1.5636,-8.9824 0.46436,-12.14237 -1.20227,-3.45615 -4.56703,-7.17155 -8.03843,-8.87613 -4.24999,-2.08689 -10.51714,-2.20036 -14.25162,-0.25802 -6.93819,3.60862 -10.67384,11.6281 -8.74168,18.76619 2.5839,9.54585 13.35462,14.68178 22.39927,10.6809 z m -161.05908,-31.2979 c 4.74036,-1.11737 8.17049,-3.10119 11.62595,-6.72388 4.71755,-4.94586 6.82183,-10.15179 6.83387,-16.90682 0.021,-11.78864 -8.69403,-21.83621 -20.57068,-23.71593 -7.52962,-1.19172 -15.99673,1.75849 -21.11291,7.35641 -4.96939,5.4373 -6.81883,10.68323 -6.39388,18.13622 0.33829,5.933 2.32657,10.50815 6.4711,14.89039 3.50151,3.70233 6.65356,5.60772 11.2751,6.81571 4.41221,1.15328 7.44584,1.19107 11.87145,0.1479 z m 129.29358,-0.80987 c 3.17035,-1.53475 6.2454,-4.63286 7.80499,-7.86354 1.75201,-3.6293 1.82519,-9.66761 0.16179,-13.35126 -3.42891,-7.59345 -12.1,-11.32306 -20.2698,-8.71845 -4.01826,1.28106 -8.58987,5.8162 -9.92991,9.85069 -2.39412,7.20801 0.45762,15.20356 6.87379,19.27236 4.16961,2.64415 10.84347,2.99619 15.35914,0.8102 z"
   id="path870"
   inkscape:connector-curvature="0" /><path
   style="fill:#cc0000;fill-opacity:1;stroke:#cc0000;stroke-width:0.54174471;stroke-opacity:1;filter:url(#filter1086)"
   d="m 251.54783,154.07387 c -3.54158,-2.15943 -4.83353,-6.38933 -2.98568,-9.77524 3.74556,-6.86319 13.60754,-5.13246 14.54547,2.55265 0.72294,5.92358 -6.39571,10.37134 -11.55979,7.22259 z"
   id="path872"
   inkscape:connector-curvature="0" /></svg>